<?xml version="1.0" encoding="utf-8"?>
<!-- Generator: Adobe Illustrator 27.7.0, SVG Export Plug-In . SVG Version: 6.00 Build 0)  -->
<svg version="1.1" id="Layer_1" xmlns="http://www.w3.org/2000/svg" xmlns:xlink="http://www.w3.org/1999/xlink" x="0px" y="0px"
	 viewBox="0 0 2000 222.2" style="enable-background:new 0 0 2000 222.2;" xml:space="preserve">
<style type="text/css">
	.st0{fill:#FFFFFF;}
</style>
<g>
	<g>
		<path class="st0" d="M109,177.1h0.6c-0.6-7.2-0.6-14.9-0.6-22.7V5.1h27.8v212h-32.5L37.6,64.5C32.5,52.9,28,39.4,28,39.4h-0.9
			c0.6,5.7,0.6,11.9,0.6,18.2v159.5H0V5.1h36.4l62.4,144.2C104.5,162.7,107.8,172.6,109,177.1"/>
		<path class="st0" d="M209,5.1v141.2c0,31.4,15.2,52,45.4,52c30.8,0,43.6-20.6,43.6-52V5.1h27.8v141.2c0,43.9-21.5,75.8-71.4,75.8
			c-49.3,0-73.2-32-73.2-75.8V5.1H209z"/>
	</g>
	<polygon class="st0" points="408.2,5.1 408.2,193.2 509.7,193.2 509.7,217.1 380.4,217.1 380.4,5.1 	"/>
	<polygon class="st0" points="593.3,5.1 593.3,193.2 694.8,193.2 694.8,217.1 565.5,217.1 565.5,5.1 	"/>
	<g>
		<path class="st0" d="M1042.4,120.6v-19.1c0-53.2-15.2-77.6-48.4-77.6c-33.1,0-48.4,24.5-48.4,77.6v19.1
			c0,53.2,15.2,77.6,48.4,77.6C1027.2,198.3,1042.4,173.8,1042.4,120.6 M916.7,120.6v-19.1C916.7,38.5,942.4,0,994,0
			c51.7,0,77.3,38.5,77.3,101.5v19.1c0,63-25.7,101.5-77.3,101.5C942.4,222.2,916.7,183.6,916.7,120.6"/>
		<path class="st0" d="M1141.2,194.1h44.5c32,0,42.1-17.9,42.1-37.9c0-20.3-11.3-35.8-39.1-35.8h-47.5V194.1z M1141.2,97.6h39.7
			c35.2,0,40.9-18.8,40.9-34c0-17.6-7.8-35.5-40.9-35.5h-39.7V97.6z M1250.2,61.5c0,20-11.3,38.5-35.5,45.4
			c25.4,4.5,41.5,23,41.5,52c0,27.2-16.1,58.2-68.7,58.2h-74.1V5.1h67.8C1235.9,5.1,1250.2,36.4,1250.2,61.5"/>
		<path class="st0" d="M1357.7,222.2c-50.2,0-69.9-39.4-69.9-73.5l27.5-9.3c0,33.4,14,58.8,43.6,58.8c31.1,0,40.3-22.1,40.3-51.7
			V5.1h27.8v147.8C1427,192.9,1403.1,222.2,1357.7,222.2"/>
	</g>
	<polygon class="st0" points="1612.1,29 1516,29 1516,96.7 1607,96.7 1607,120 1516,120 1516,193.2 1614.2,193.2 1614.2,217.1 
		1488.2,217.1 1488.2,5.1 1612.1,5.1 	"/>
	<g>
		<path class="st0" d="M1658.1,118.8v-15.5C1658.1,38.5,1685.3,0,1736,0c44.2,0,69.3,24.2,74.7,74.7l-27.8,4.5
			c-2.4-34.6-17.9-55.2-47.2-55.2c-33.1,0-49,24.2-49,77.9v15.2c0,53.7,17,81.2,49,81.2c29.6,0,44.8-20.6,47.2-55.5l27.5,5.7
			c-4.5,41.8-27.8,73.8-76.7,73.8C1683.2,222.2,1658.1,183.6,1658.1,118.8"/>
	</g>
	<polygon class="st0" points="1838.8,5.1 1838.8,29 1905.3,29 1905.3,217.1 1933.4,217.1 1933.4,29 2000,29 2000,5.1 	"/>
</g>
</svg>
